<?xml version="1.0" encoding="utf-8"?>
<!-- Generator: Adobe Illustrator 22.0.0, SVG Export Plug-In . SVG Version: 6.00 Build 0)  -->
<svg version="1.1" id="Capa_1" xmlns="http://www.w3.org/2000/svg" xmlns:xlink="http://www.w3.org/1999/xlink" x="0px" y="0px"
	 viewBox="0 0 24.6 24.5" style="enable-background:new 0 0 24.6 24.5;" xml:space="preserve">
<style type="text/css">
	.st0{fill:#D63C2B;}
	.st1{fill:#E64F13;}
	.st2{fill:#161313;}
</style>
<path class="st0" d="M14.6,13.9l5.9-5.8c-3.6-1.4-7.3,0.2-7.3,0.2L6.9,2.9c0,0,0.3-1.8-0.7-3L0,6c0,0,1.3,1,3.1,0.7L8.4,13
	c0,0-1.8,3.4-0.2,7.3L14.6,13.9z"/>
<path class="st1" d="M13.2,8.3C13.2,8.3,13.2,8.3,13.2,8.3l-4.8,4.8c0-0.1,0-0.1,0-0.1L3.1,6.7L6.9,3L13.2,8.3z"/>
<polyline class="st2" points="14.6,14 24.3,23.1 24.6,24.5 23.2,24.2 14.1,14.6 "/>
</svg>
